<?xml version="1.0" encoding="utf-8"?>
<!-- Generator: Adobe Illustrator 23.0.0, SVG Export Plug-In . SVG Version: 6.00 Build 0)  -->
<svg version="1.1" id="Layer_1" xmlns="http://www.w3.org/2000/svg" xmlns:xlink="http://www.w3.org/1999/xlink" x="0px" y="0px"
	 viewBox="0 0 566.9 161.2" style="enable-background:new 0 0 566.9 161.2;" xml:space="preserve">
<style type="text/css">
	.st0{fill-rule:evenodd;clip-rule:evenodd;fill:#FFFFFF;}
	.st1{fill:#FFFFFF;}
</style>
<g id="Layer_x0020_1">
	<g id="_2228100193104">
		<g>
			<path class="st0" d="M28.8,57.3C21.1,66.2,5.4,84,1.7,104.4c-3.8,20.4-1.7,38.4,11,48.4c20.9,16.4,42.1,6,51.8-5.7l38.9-46.9
				c16.4-19.8,27.6-31.2,56-40.4c30.4-9.8,67.7-10.3,85.7-33.1c6.7-6.9,10.4-15.7,11-26.7c-24.6,11-87.9-4.3-133.7,58.3L61.8,141
				c-12,16.4-36.9,15.9-48,3.8C3.9,134,7.3,119,14.6,105.9c6.2-11.2,14.4-19.1,26.3-27C51.3,72,62.5,64.6,67.2,54.1
				c2.7-6.1,2.3-24.7-2.6-25.7s-23.4,0.6-29,4.2c-5.1,3.2-4.5,8.1-4.5,13.7C31.1,49.7,31.2,54.6,28.8,57.3L28.8,57.3z"/>
			<path class="st0" d="M67.2,154.2l38.5-48c12.6-15.7,27.6-31.2,56-40.4c10.7-3.5,22.2-5.8,33.5-8.3l15.3-2.4
				c-4.1,22.5-19.3,35-45.7,38.5c-21.8,2.9-41.8,10.6-59.4,24c-14.1,10.7-25.5,25.7-37.3,39.8C64.3,161.8,63.3,159.1,67.2,154.2
				L67.2,154.2z"/>
			<path class="st0" d="M97.9,133c-10.6,13.7-3.5,32.4,16.2,26.1c9.8-3.1,12.7-11.2,16.7-20c4.4-9.8,16.9-14.2,29.6-6.1
				c-3.3-12.6-15.6-17.1-24.6-17.2C119.6,115.5,106.3,122.1,97.9,133z"/>
		</g>
		<path class="st1" d="M233.3,115.7h17.4l2.5,27.3l10.9-27.3h17.4l-6.9,44.8h-10.8l5.3-34.2l-13.6,34.2h-9.8l-3.1-34.2l-5.3,34.2
			h-10.8L233.3,115.7L233.3,115.7z M296.5,138.5l-11.2-1.3c0.7-2.1,1.6-3.7,2.6-4.9s2.3-2.2,4-3.1c1.2-0.6,2.8-1.1,4.7-1.5
			c2-0.3,4.1-0.5,6.3-0.5c3.6,0,6.4,0.2,8.5,0.6s3.8,1.3,5,2.6c0.9,0.9,1.5,2.2,1.8,3.9s0.4,3.3,0.1,4.8l-2.2,14.3
			c-0.2,1.5-0.3,2.7-0.3,3.6c0.1,0.9,0.3,2,0.7,3.3h-11.2c-0.3-0.8-0.5-1.5-0.6-1.9s-0.1-1.1-0.1-2.1c-1.8,1.6-3.5,2.7-5.2,3.4
			c-2.2,0.9-4.8,1.3-7.5,1.3c-3.7,0-6.4-0.9-8-2.7s-2.3-4-1.9-6.6c0.4-2.5,1.4-4.5,3-6.1s4.4-2.8,8.2-3.5c4.6-0.9,7.6-1.6,9-2
			s2.9-0.9,4.4-1.5c0.2-1.5,0.1-2.6-0.4-3.2c-0.5-0.6-1.5-0.9-3.1-0.9c-1.9,0-3.5,0.3-4.5,1C298,136.2,297.2,137.1,296.5,138.5
			L296.5,138.5z M305.8,145.1c-1.7,0.6-3.5,1.2-5.4,1.6c-2.5,0.7-4.2,1.3-4.9,2c-0.8,0.7-1.2,1.4-1.4,2.3c-0.2,1,0.1,1.8,0.6,2.4
			c0.6,0.6,1.5,0.9,2.7,0.9c1.3,0,2.6-0.3,3.9-1c1.2-0.7,2.2-1.5,2.8-2.5c0.6-1,1.1-2.2,1.3-3.8L305.8,145.1L305.8,145.1z
			 M329.1,115.7H341l-2.5,16.5c1.9-1.8,3.7-3,5.4-3.8c1.7-0.8,3.7-1.1,5.9-1.1c3.2,0,5.6,1,7.2,3.1c1.5,2.1,2,5.2,1.3,9.5l-3.2,20.6
			h-12l2.7-17.9c0.3-2,0.2-3.5-0.4-4.3c-0.6-0.9-1.5-1.3-2.8-1.3c-1.4,0-2.7,0.6-3.8,1.7c-1.1,1.1-1.8,3.2-2.3,6.1l-2.4,15.6h-11.9
			L329.1,115.7L329.1,115.7z M376.4,138.5l-11.2-1.3c0.8-2.1,1.6-3.7,2.6-4.9s2.3-2.2,4-3.1c1.2-0.6,2.8-1.1,4.7-1.5
			c2-0.3,4-0.5,6.3-0.5c3.6,0,6.4,0.2,8.5,0.6s3.8,1.3,5,2.6c0.9,0.9,1.5,2.2,1.8,3.9s0.4,3.3,0.1,4.8l-2.2,14.3
			c-0.2,1.5-0.3,2.7-0.3,3.6c0.1,0.9,0.3,2,0.7,3.3h-11.2c-0.3-0.8-0.5-1.5-0.6-1.9s-0.1-1.1-0.1-2.1c-1.8,1.6-3.5,2.7-5.2,3.4
			c-2.2,0.9-4.8,1.3-7.5,1.3c-3.7,0-6.4-0.9-8-2.7s-2.3-4-1.9-6.6c0.4-2.5,1.4-4.5,3-6.1s4.4-2.8,8.2-3.5c4.6-0.9,7.6-1.6,9-2
			s2.9-0.9,4.4-1.5c0.2-1.5,0.1-2.6-0.4-3.2c-0.5-0.6-1.5-0.9-3.1-0.9c-1.9,0-3.5,0.3-4.5,1C377.8,136.2,377.1,137.1,376.4,138.5
			L376.4,138.5z M385.7,145.1c-1.7,0.6-3.5,1.2-5.4,1.6c-2.5,0.7-4.2,1.3-4.9,2c-0.8,0.7-1.2,1.4-1.4,2.3c-0.2,1,0.1,1.8,0.6,2.4
			c0.6,0.6,1.5,0.9,2.7,0.9c1.3,0,2.6-0.3,3.9-1c1.2-0.7,2.2-1.5,2.8-2.5c0.6-1,1.1-2.2,1.3-3.8L385.7,145.1L385.7,145.1z
			 M407.1,128h11.1l-0.8,5.3c2-2.2,3.9-3.7,5.7-4.6c1.8-0.9,4-1.4,6.4-1.4c3.3,0,5.7,1,7.3,3.1c1.5,2,2,5.2,1.3,9.5l-3.2,20.6h-12
			l2.7-17.9c0.3-2,0.2-3.5-0.4-4.3c-0.6-0.9-1.5-1.3-2.8-1.3c-1.4,0-2.7,0.6-3.8,1.7c-1.1,1.1-1.8,3.2-2.3,6.1l-2.4,15.6H402
			L407.1,128L407.1,128z M490.3,153.1h-15.1l-3.2,7.4h-13.5l23-44.8h14.4l9.2,44.8h-13.9L490.3,153.1L490.3,153.1z M489,143.4
			l-2.3-16.1l-7.2,16.1H489z M515.9,115.7h11.9l-1.3,8.5h-11.9L515.9,115.7L515.9,115.7z M514,128h11.9l-5,32.5H509L514,128z
			 M533.6,128h11.1l-0.8,5.3c1.4-2.3,2.8-3.9,4-4.7c1.3-0.9,2.7-1.3,4.4-1.3c1.8,0,3.6,0.6,5.5,1.7l-5,8.9c-1.3-0.6-2.4-0.9-3.2-0.9
			c-1.6,0-2.9,0.7-3.9,2c-1.5,1.9-2.7,5.4-3.5,10.6l-1.7,10.9h-12L533.6,128L533.6,128z"/>
		<g>
			<path class="st1" d="M543.3,66.3c1-0.7,1.9-1.4,2.9-2.1c1.3-1.5,2.8-3.5,4.5-6.1c0.2-0.4,1.3-2.4,3.2-6.2
				c0.8-1.5,1.7-2.3,2.9-2.3c0.5,0,1.3,0.2,2.2,0.6c0.9,0.4,1.6,0.6,2.2,0.6c1.6,0,3-0.8,4.1-2.3s1.7-3.2,1.7-5.2
				c0-0.6-0.3-1.4-1-2.2c-0.6-0.9-1.2-1.3-1.5-1.3s-0.7,0.4-1.1,1.1c-0.8,1.5-1.3,2.4-1.5,2.5c-0.4-0.5-0.8-1-1.4-1.3
				c-0.8-0.5-1.6-0.8-2.3-0.8c-1,0-2,0.5-3,1.5c-0.6,0.6-1.1,1.3-1.6,2.2c-0.5,0.8-1,2-1.7,3.6s-1.1,2.7-1.4,3.3
				c-0.5,1.1-1,1.8-1.5,2.3c-0.2,0.2-0.7,0.6-1.6,1.4c-1.5,1.2-2.5,2.3-3,3.3s-0.7,2-0.7,3.1L543.3,66.3L543.3,66.3z"/>
			<path class="st0" d="M557.9,70.7c-0.7,1.1-1.3,2.3-1.9,3.5c-1.9,3.3-1.5,5.1-1.3,6.1c0,0.1,0.3,1.5,1.3,0.2
				c1.4-1.7,3.8,0.2,4,1.2c1,4.2-3.4,7.4-7.3,4.9c-0.7-0.5-1.3-1.5-1.6-2.2c-0.6-1.6-0.1-5.1,1.9-8.5
				C554.9,72.4,556.7,70.9,557.9,70.7L557.9,70.7z"/>
			<path class="st1" d="M545.8,65.5c-0.2,0.6-0.4,1.1-0.6,1.5c-0.2,0.4-0.6,1.1-1.1,2c-0.6,0.9-1.2,1.9-1.9,2.9
				c-1.3,2-2.3,3.2-3,3.6s-1.7,0.9-3,1.3c-0.6,0.2-1.9,0.7-4,1.4l-6.2,1.6c-0.5,0.1-1,0.2-1.5,0.2c-0.6,0.1-0.9,0-1-0.1
				c-0.1-0.2,0.3-0.5,1.1-1s1.3-0.8,1.5-0.9s1.6-1,4.3-2.6c1.7-1,3.1-2,4.4-2.9c2.6-1.9,4.4-3.4,5.5-4.6c1.4-1.5,2.1-2.7,2.1-3.7
				c-0.4,0.2-0.8,0.3-1.3,0.3c-0.5,0.1-1.1,0.1-1.8,0.1c-1.4-0.2-2.5-0.6-3.3-1.1c-1.2-0.8-1.8-1.8-1.8-3c0-0.9,0.8-3.2,2.5-6.8
				c0.5-1.1,1.1-2.2,2-3.2c1.1-1.4,2.2-2.2,3.1-2.2c1.5,0,2.8,0.5,3.9,1.6c1.4,1.5,2.1,2.9,2.1,4.5c0.1,0.5,0.1,1.4,0.1,2.5
				c0,0.8,0,1.6-0.1,2.3c0,0.7-0.2,1.4-0.3,2.1c-0.2,0.7-0.4,1.3-0.6,1.9C546.4,64.1,546.1,64.8,545.8,65.5L545.8,65.5z"/>
		</g>
		<path class="st1" d="M524.6,25.8c0.2-0.5,0.4-1.1,0.8-1.9c0.1-0.2,0.2-0.4,0.5-0.8c0.3,0.3,0.4,0.6,0.5,0.9v3.9l0.2,6.4l0.2,10.3
			c0,2.3-0.1,4.2-0.3,5.8c-0.2,1.5-0.5,3.2-1,4.9l-1.8,5.8c-0.8,2.1-1.5,3.6-1.9,4.3c-0.4,0.7-0.8,1.1-1.2,1.2l-0.5-0.7
			c0.3-2.1,0.6-4.2,0.8-6.2s0.4-3.6,0.5-4.6c0.2-3.6,0.3-6.7,0.2-9.5c-0.1-2.7-0.2-5.2-0.3-7.3l0.7-3.7L524.6,25.8L524.6,25.8z"/>
		<path class="st1" d="M506.9,32.9c0.4,0.1,0.9,0.2,1.4,0.5c0.6,0.2,0.9,0.3,1.1,0.3c0.7,0,1.3-0.2,1.8-0.7s1.1-1.2,1.7-2.2
			s1.1-1.5,1.4-1.4c0.5,0.2,0.6,0.9,0.1,2.3c-0.5,1.1-0.8,1.8-0.9,2.2c-0.5,1-1,1.8-1.5,2.5c-2,2.6-3.7,3.9-5,3.9
			C506.9,40.3,506.9,32.9,506.9,32.9z"/>
		<path class="st1" d="M504.8,95.3c0,1-0.1,1.7-0.3,2.2c-0.2,0.5-0.5,1.1-1.1,1.9c-1.6,2.1-2.8,3.2-3.8,3.2c-0.2,0-0.6-0.3-1.2-0.9
			s-1.1-1.1-1.6-1.7c-1.6-1.4-2.5-2.3-2.5-2.6c0-0.3,0.4-1.1,1.2-2.6c0.6-1,1.1-1.8,1.3-2.3c0.7-1.2,1.1-2,1.3-2.4
			c0.7-1,1.1-1.5,1.3-1.5c0.1,0,0.4,0.1,0.8,0.4s0.8,0.6,1.3,1.1c1.3,1.2,2.1,2.2,2.5,2.9C504.6,93.8,504.8,94.5,504.8,95.3
			L504.8,95.3z M500,82.4c0,1-0.1,1.7-0.3,2.1c-0.2,0.5-0.5,1.1-1.1,1.9c-1.6,2.1-2.8,3.2-3.8,3.2c-0.2,0-0.6-0.3-1.2-0.9
			s-1.1-1.1-1.6-1.7c-1.6-1.4-2.5-2.3-2.5-2.6c0-0.3,0.4-1.1,1.2-2.6c0.6-1,1.1-1.8,1.3-2.3c0.7-1.2,1.1-2,1.3-2.4
			c0.7-1,1.1-1.5,1.3-1.5c0.1,0,0.4,0.1,0.8,0.4s0.8,0.6,1.3,1.1c1.3,1.2,2.1,2.2,2.5,2.9C499.9,80.9,500,81.7,500,82.4L500,82.4z
			 M510.2,82.4c0,1-0.1,1.7-0.3,2.1c-0.2,0.5-0.5,1.1-1.1,1.9c-1.6,2.1-2.8,3.2-3.8,3.2c-0.2,0-0.6-0.3-1.2-0.9s-1.1-1.1-1.6-1.7
			c-1.6-1.4-2.5-2.3-2.5-2.6c0-0.3,0.4-1.1,1.2-2.6c0.6-1,1.1-1.8,1.3-2.3c0.7-1.2,1.1-2,1.3-2.4c0.7-1,1.1-1.5,1.3-1.5
			c0.1,0,0.4,0.1,0.8,0.4s0.8,0.6,1.3,1.1c1.3,1.2,2.1,2.2,2.5,2.9C510,80.9,510.2,81.7,510.2,82.4L510.2,82.4z"/>
		<path class="st1" d="M507.1,40.1c-0.6,0-1.2-0.2-1.8-0.6c-0.6-0.4-1.1-0.6-1.7-0.7c-0.9-0.2-1.9,0.2-3,1s-1.6,1.6-1.6,2.4
			l-4.7,2.5c0.2-0.8,0.6-1.7,1.1-2.7c0.3-0.6,0.7-1.4,1.3-2.3c1.3-2,2.8-3.7,4.5-5c1.7-1.4,3.3-2.1,4.6-2.1l1.1,0.1
			c0.2,0.5,0.3,1.1,0.4,1.8s0.2,1.3,0.2,1.7c0,0.8-0.1,1.6-0.2,2.3C507.4,39.2,507.2,39.8,507.1,40.1L507.1,40.1z"/>
		<path class="st1" d="M475.2,90.2c0.1,0.7,0.1,1.4-0.2,2.2c-0.2,0.8-0.6,1.6-1.1,2.6s-1.2,1.9-2.1,2.7c-0.5,0.5-1,0.8-1.3,0.8
			c-0.2,0-0.7-0.3-1.4-0.9c-0.7-0.6-1.3-1.1-1.9-1.6c-0.6-0.4-1.1-0.8-1.5-1.3c-0.4-0.4-0.6-0.7-0.6-1c0.4-0.9,0.7-1.5,0.9-2
			c0.7-1.5,1.2-2.5,1.5-3.2c0.6-1,1.2-2,1.8-3.1c0.1-0.2,0.3-0.5,0.6-0.9c0.2,0.2,0.4,0.4,0.6,0.5s0.5,0.3,0.8,0.5
			c1.4,1.1,2.3,2,2.8,2.6C474.8,88.7,475.1,89.4,475.2,90.2L475.2,90.2z M485.5,89.6c0.1,0.7,0.1,1.4-0.1,2.2
			c-0.2,0.8-0.6,1.6-1.1,2.6s-1.2,1.9-2.1,2.7c-0.5,0.5-1,0.8-1.3,0.8c-0.2,0-0.7-0.3-1.4-0.9c-0.7-0.6-1.3-1.1-1.9-1.6
			c-0.6-0.4-1.1-0.9-1.4-1.3c-0.4-0.4-0.6-0.7-0.6-1c0.4-0.9,0.7-1.5,0.9-2c0.7-1.5,1.2-2.5,1.5-3.2c0.6-1,1.2-2,1.8-3.1
			c0.1-0.2,0.3-0.5,0.6-0.9c0.2,0.2,0.4,0.4,0.6,0.5s0.5,0.3,0.8,0.5c1.4,1.1,2.3,2,2.8,2.6C485.1,88.1,485.4,88.8,485.5,89.6
			L485.5,89.6z"/>
		<path class="st0" d="M398,55.3c9.1,34,81.1,6.4,94-8.2c0.6-0.6,1-1.2,1.5-1.5s0.7-0.5,0.8-0.7c0.4-0.5,0.6-0.8,0.8-0.9
			c0.7-0.7,1.2-1.1,1.5-1.2c0.3-0.1,0.7-0.2,1.1-0.2c0.5,0,0.9-0.1,1.3-0.2c0,0.8,0.6,1.8,1.9,3.2s1.9,2.4,1.9,3
			c0,1.1-0.7,2.3-1.9,3.7c-1.3,1.4-2.3,2.1-2.9,2.1c-0.3,0-1-0.2-2.1-0.7s-2.1-0.7-3.1-0.7c-1.1,0-2,0.6-3,1.5
			c-14.1,13.3-92.3,51.5-95.7,7.4c-0.8-10.2,0.4-20.5,1.3-30.7c0-0.3,0.6-1.9,1.5-4.8c1-2.9,1.8-5.1,2.3-6.6
			C399.4,19.4,396.4,49.4,398,55.3L398,55.3z"/>
		<path class="st1" d="M368.1,55.9c1.7-3.7,3-6.7,3.9-8.8c1.7-4,2.5-6.6,2.5-8c0-0.5-0.2-1.4-0.7-2.5s-1-2.3-1.5-3.4
			c-0.5-0.8-0.9-1.5-1.3-2.2s-0.6-1.2-0.5-1.5c0.7-2.1,1.2-3.8,1.6-4.9c1.1-3.1,1.8-5.2,2.3-6.1c1.3,0.4,2.5,1.8,3.7,4.2
			c1.1,2.4,1.7,4.9,1.7,7.4c0,2.6-0.7,5.9-2.2,9.9c-1.7,4.3-3.4,8.6-5,12.8c0,0.7,0.3,1.2,1,1.7c0.7,0.4,1.4,0.8,2.2,1.2
			c1.2,0.8,2,1.7,2.4,2.5s0.6,2.1,0.6,3.8c0,2.5-0.3,5-1,7.6c-0.7,2.5-1.8,5.6-3.5,9.3c-2.7,5.8-6.5,10.4-11.1,13.8
			c-1.7,1.1-3.4,1.9-5,2.5c-1.7,0.6-3.6,0.9-5.7,0.9c-4.8,0-8.5-1.8-11.1-5.4c-2.2-3.1-3.3-7.1-3.3-11.8c0-2.1,0.5-4.9,1.4-8.3
			s1.9-6.3,2.8-8.7c1-2.4,1.9-4.5,2.7-6.3c0.4-0.8,1.2-2.6,2.5-5.2c0.8-1.7,1.5-3,2.1-4.1c0.5-1,1-1.5,1.3-1.4
			c0.4,0.1,0.5,0.5,0.3,1.3s-0.4,1.6-0.7,2.4c-2.7,6-4.5,10.3-5.5,12.8c-1.8,4.4-2.6,7.8-2.6,10.3c0,4.6,1.4,7.9,4.2,9.9
			c2,1.4,4.7,2.1,8.1,2.1c6,0,11-1.7,15-5c3.4-2.9,5.2-5.9,5.2-9.1c0-0.6-1.4-1.5-4.1-2.8s-4.1-2.8-4.1-4.6c0-1.1,0.1-2.1,0.4-3
			C367.3,57.9,367.6,56.9,368.1,55.9L368.1,55.9z"/>
		<path class="st0" d="M318.8,55.7L318.8,55.7L318.8,55.7v2c0,2.5,0.5,4.4,1.5,5.7c0.4,0.5,0.8,1,1.3,1.3c0.4,0.3,0.9,0.6,1.4,0.6
			c1.9,0.1,1.4-6.4,3.5-6.1c0.9,0.1,1.6,0.8,2.1,1.6c0.5,0.9,0.8,1.7,0.9,2.6c0,2.9-0.6,5.8-1.8,8.5c-1.7,3.7-3.9,5.6-6.8,5.6
			c-1.6,0-3.1-0.8-4.4-2.5s-2-3.3-2.2-4.9c-0.2-1.5-0.2-2.5-0.2-2.9s0-0.7,0-0.8V65c0.5-7.7,1.6-17.3,2.9-24.9
			c0.1-0.3,0.7-1.9,1.8-4.9c1.1-2.9,2.1-5.1,2.8-6.6c0.2-0.1,0.3-0.2,0.5-0.2c0.1,0.2,0,0.9-0.1,1.9l-0.5,3.1
			C320.3,40.7,318.8,48.3,318.8,55.7L318.8,55.7z"/>
		<path class="st1" d="M295.2,50.6c-2.4,4-3.6,7.3-3.4,10.1c0.1,1.2,0.3,2.2,0.8,3c0.5,0.8,0.9,1.2,1.3,1.1c0.4,0,0.9-0.9,1.4-2.7
			c0.3-0.9,0.5-1.4,0.6-1.4c0.8,0,1.5,0.5,2.3,1.7c0.5,0.8,0.8,1.7,0.8,2.6c0.1,2.5-0.5,5.1-2,7.7c-1.7,3.1-3.7,4.7-6,4.8
			c-1.5,0.1-2.8-0.5-4-1.9c-1.1-1.4-1.7-2.9-1.8-4.7c-0.2-2.8,0.6-6.2,2.3-10.1c1.3-3.1,3.3-6.7,5.9-10.6c-1.6-0.5-3-1.4-4.3-2.8
			c-1.3-1.3-2-3.3-2.2-5.9c-0.1-1.9,0.1-4.5,0.7-7.8c0.5-2.2,0.8-3.6,0.9-4.4c0.7-2.9,1.9-6.3,3.3-10.2s2.4-5.9,3-5.9
			c0,0.6,0.1,1.2,0.2,1.7c-0.5,1.9-1,3.8-1.4,5.7c-0.2,1.1-0.4,2.5-0.8,4.4c-0.3,1.9-0.5,3.3-0.4,4.3c0,0.7,0,1.2,0,1.5
			c0.1,1.8,0.5,3.1,1.2,4.1c0.7,1.2,1.9,1.9,3.6,2.2c0.4,0.1,0.9,0.2,1.5,0.1c0.5,0,0.9-0.1,1.3-0.1s0.6,0.2,0.6,0.7
			c0,0.8-0.1,1.6-0.4,2.6s-1,2.6-2.1,5c-0.8,1.6-1.6,3-2.4,4.4C295.6,50,295.4,50.3,295.2,50.6L295.2,50.6z"/>
		<path class="st1" d="M274.1,57.8c-0.4,1.6-0.7,2.8-0.9,3.7c-0.2,0.9-0.5,1.9-0.9,2.9c-0.8,2.7-2,5.4-3.6,8.1
			c-1.5,2.7-3.3,5.3-5.3,7.8c-3.1,3.7-6.3,6.4-9.7,8.3c-3.4,1.9-7.3,2.8-11.5,2.8c-4.8,0-8.5-1.5-11.1-4.5s-3.8-6.8-3.8-11.6
			c0-2.4,0.3-4.9,0.9-7.7c0.6-2.8,1.3-5,2-6.8s1.6-3.7,2.6-5.7c1.3-2.6,2.7-5.2,4.2-7.9c0.6-1.1,1-1.7,1.1-1.8s0.3-0.1,0.6-0.1
			c0.2,0.1,0.2,0.5,0.1,1.3c-0.1,0.8-0.2,1.4-0.4,1.9l-3.8,8.3c-1,2.5-1.6,4.2-1.9,5.2c-0.5,1.7-0.8,3.4-0.8,5.2
			c0,4.5,1.5,7.8,4.6,9.7c2.3,1.5,5.2,2.3,8.7,2.3c2.5,0,4.7-0.2,6.6-0.6c1.9-0.4,3.9-1.2,6.1-2.4c2.1-1.2,4-2.7,5.7-4.5
			c1.1-1.2,2.5-3,4-5.3c0.9-1.5,1.6-3,2.1-4.3s0.7-3,0.7-5l0.2-8.3c0-1.4,0.2-2.6,0.5-3.8c0.3-1.1,0.8-2.6,1.5-4.4l2.3-4.5
			c0.5-0.8,0.7-1.4,0.9-1.5c0.1-0.2,0.3-0.5,0.6-0.9c0.4,0.4,0.5,0.9,0.5,1.5l-0.6,4l-0.6,5.7c0,2.2-0.1,4.2-0.4,5.8
			C275.1,52.8,274.7,55,274.1,57.8L274.1,57.8z M259.4,51.9c0.1,0.3,0.1,0.7,0.1,1.3c0,1.4-0.5,2.7-1.4,4c-1.8,2.6-3.2,4-4,4.1
			c-0.2,0-0.5-0.2-1-0.6c-1.8-1.3-2.7-2-2.7-2.1c-0.8-0.5-1.5-0.9-2.1-1.3c-0.7-0.4-1-0.9-1.1-1.4l2.6-6c0.8-1.5,1.6-2.6,2.2-3.6
			c0.2-0.2,0.4-0.6,0.7-1c0.5,0.2,0.9,0.4,1.3,0.6c0.4,0.2,0.8,0.4,1.1,0.6c1.6,1.2,2.7,2.2,3.3,2.9C259,50.3,259.3,51,259.4,51.9
			L259.4,51.9z"/>
		<path class="st1" d="M383,90.2c0.1,0.7,0.1,1.4-0.2,2.2c-0.2,0.8-0.6,1.6-1.1,2.6s-1.2,1.9-2.1,2.7c-0.5,0.5-1,0.8-1.3,0.8
			c-0.2,0-0.7-0.3-1.4-0.9c-0.7-0.6-1.3-1.1-1.9-1.6c-0.6-0.4-1.1-0.8-1.5-1.3c-0.4-0.4-0.6-0.7-0.6-1c0.4-0.9,0.7-1.5,0.9-2
			c0.7-1.5,1.2-2.5,1.5-3.2c0.6-1,1.2-2,1.8-3.1c0.1-0.2,0.3-0.5,0.6-0.9c0.2,0.2,0.4,0.4,0.6,0.5s0.5,0.3,0.8,0.5
			c1.4,1.1,2.3,2,2.8,2.6C382.5,88.7,382.8,89.4,383,90.2L383,90.2z M393.3,89.6c0.1,0.7,0.1,1.4-0.1,2.2c-0.2,0.8-0.6,1.6-1.1,2.6
			s-1.2,1.9-2.1,2.7c-0.5,0.5-1,0.8-1.3,0.8c-0.2,0-0.7-0.3-1.4-0.9c-0.7-0.6-1.3-1.1-1.9-1.6c-0.6-0.4-1.1-0.9-1.4-1.3
			c-0.4-0.4-0.6-0.7-0.6-1c0.4-0.9,0.7-1.5,0.9-2c0.7-1.5,1.2-2.5,1.5-3.2c0.6-1,1.2-2,1.8-3.1c0.1-0.2,0.3-0.5,0.6-0.9
			c0.2,0.2,0.4,0.4,0.6,0.5s0.5,0.3,0.8,0.5c1.4,1.1,2.3,2,2.8,2.6C392.8,88.1,393.1,88.8,393.3,89.6L393.3,89.6z"/>
	</g>
</g>
</svg>
